# AST/ASF file generated using VICON BodyLanguage
# -----------------------------------------------
:version 1.10
:name VICON
:units
  mass 1.0
  length 0.45
  angle deg
:documentation
   .ast/.asf automatically generated from VICON data using
   VICON BodyBuilder and BodyLanguage model FoxedUp or BRILLIANT.MOD
:root
   order TX TY TZ RX RY RZ
   axis XYZ
   position 0 0 0  
   orientation 0 0 0 
:bonedata
  begin
     id 1 
     name lhipjoint
     direction 0.561001 -0.76473 0.316963 
     length 2.4722 
     axis 0 0 0  XYZ
  end
  begin
     id 2 
     name lfemur
     direction 0.34202 -0.939693 0  
     length 7.59403  
     axis 0 0 20  XYZ
    dof rx ry rz
    limits (-160.0 20.0)
           (-70.0 70.0)
           (-60.0 70.0)
  end
  begin
     id 3 
     name ltibia
     direction 0.34202 -0.939693 0   
     length 7.89655   
     axis 0 0 20   XYZ
    dof rx
    limits (-10.0 170.0)
  end
  begin
     id 4 
     name lfoot
     direction 0.061296 -0.168409 0.98381   
     length 2.73287   
     axis -90 7.62852e-016 20   XYZ
    dof rx rz
    limits (-45.0 90.0)
           (-70.0 20.0)
  end
  begin
     id 5 
     name ltoes
     direction 1.53547e-011 -4.21984e-011 1   
     length 1.37057   
     axis -90 7.62852e-016 20   XYZ
    dof rx
    limits (-90.0 20.0)
  end
  begin
     id 6 
     name rhipjoint
     direction -0.559611 -0.765599 0.317323   
     length 2.46939  
     axis 0 0 0  XYZ 
  end
  begin
     id 7 
     name rfemur
     direction -0.34202 -0.939693 0   
     length 7.53712   
     axis 0 0 -20   XYZ
    dof rx ry rz
    limits (-160.0 20.0)
           (-70.0 70.0)
           (-70.0 60.0)
  end
  begin
     id 8 
     name rtibia
     direction -0.34202 -0.939693 0   
     length 8.12549   
     axis 0 0 -20   XYZ
    dof rx
    limits (-10.0 170.0)
 end
 begin
     id 9 
     name rfoot
     direction -0.066984 -0.184037 0.980634   
     length 2.67541  
     axis -90 -7.62852e-016 -20   XYZ
    dof rx rz
    limits (-45.0 90.0)
           (-20.0 70.0)
  end
  begin
     id 10 
     name rtoes
     direction -1.53549e-011 -4.21786e-011 1   
     length 1.34085   
     axis -90 -7.62852e-016 -20   XYZ
    dof rx
    limits (-90.0 20.0)
  end
  begin
     id 11 
     name lowerback
     direction -0.0522728 0.992594 -0.109658   
     length 2.05633   
     axis 0 0 0   XYZ
    dof rx ry rz
    limits (-20.0 45.0)
           (-30.0 30.0)
           (-30.0 30.0)
  end
  begin
     id 12 
     name upperback
     direction 0.00589338 0.999977 0.00335704   
     length 2.05845   
     axis 0 0 0   XYZ
    dof rx ry rz
    limits (-20.0 45.0)
           (-30.0 30.0)
           (-30.0 30.0)
  end
  begin
     id 13 
     name thorax
     direction 0.0292928 0.998059 0.0549487   
     length 2.09281   
     axis 0 0 0   XYZ
    dof rx ry rz
    limits (-20.0 45.0)
           (-30.0 30.0)
           (-30.0 30.0)
  end
  begin
     id 14 
     name lowerneck
     direction 0.0356368 0.980775 0.191858   
     length 1.84767   
     axis 0 0 0   XYZ
    dof rx ry rz
    limits (-20.0 45.0)
           (-30.0 30.0)
           (-30.0 30.0)
  end
  begin
     id 15 
     name upperneck
     direction -0.0227605 0.98931 -0.14404   
     length 1.89582   
     axis 0 0 0   XYZ
    dof rx ry rz
    limits (-20.0 45.0)
           (-30.0 30.0)
           (-30.0 30.0)
  end
  begin
     id 16
     name head
     direction -0.00932985 0.997511 -0.0698904  
     length 1.90213  
     axis 0 0 0   XYZ
    dof rx ry rz
    limits (-20.0 45.0)
           (-30.0 30.0)
           (-30.0 30.0)
  end
  begin
     id 17 
     name lclavicle
     direction 0.873442 0.479511 0.0846686  
     length 3.41193  
     axis 0 0 0   XYZ
    dof ry rz
    limits (-20.0 10.0)
           (0.0 20.0)
  end
  begin
     id 18 
     name lhumerus
     direction 1 -4.4897e-011 -5.62117e-018   
     length 5.59864   
     axis 180 -30 -90   XYZ
    dof rx ry rz
    limits (-60.0 90.0)
           (-90.0 90.0)
           (-90.0 90.0)
  end
  begin
     id 19
     name lradius
     direction 1 -4.48966e-011 -6.26295e-027   
     length 3.59542   
     axis 180 -30 -90   XYZ
    dof rx
    limits (-10.0 170.0)
  end
  begin
     id 20
     name lwrist
     direction 1 -4.48947e-011 -1.74096e-026   
     length 1.79771   
     axis 1.04567e-014 90 90   XYZ
    dof ry
    limits (-180.0 0.0)
 end
  begin
     id 21 
     name lhand
     direction 1 -4.49085e-011 -3.48469e-026   
     length 0.572014   
     axis 2.22196e-014 90 90   XYZ
    dof rx rz
    limits (-90.0 90.0)
           (-45.0 45.0)
  end
  begin
     id 22 
     name lfingers
     direction 1 -4.48884e-011 -6.96135e-026   
     length 0.461173   
     axis 4.44383e-014 90 90   XYZ
    dof rx
    limits (0.0 90.0)
  end
  begin
     id 23
     name lthumb
     direction 0.707107 -6.34976e-011 0.707107   
     length 0.662154   
     axis -90 45 -5.4397e-014   XYZ
    dof rx rz
    limits (-45.0 45.0)
           (-45.0 45.0)
  end
  begin
     id 24 
     name rclavicle
     direction -0.890242 0.443271 0.104786   
     length 3.46753  
     axis 0 0 0   XYZ 
    dof ry rz
    limits (-10.0 20.0)
           (-20.0 0.0)
  end
  begin
     id 25 
     name rhumerus
     direction -1 -4.48963e-011 -5.41723e-018  
     length 5.8094   
     axis 180 30 90   XYZ
    dof rx ry rz
    limits (-90.0 60.0)
           (-90.0 90.0)
           (-90.0 90.0)
  end
  begin
     id 26 
     name rradius
     direction -1 -4.48958e-011 -6.51059e-027   
     length 3.66953   
     axis 180 30 90   XYZ
    dof rx
    limits (-10.0 170.0)
  end
  begin
     id 27 
     name rwrist
     direction -1 -4.48975e-011 -1.74124e-026   
     length 1.83476   
     axis 1.04567e-014 -90 -90   XYZ
    dof ry
    limits (-180.0 0.0)
  end
  begin
     id 28
     name rhand
     direction -1 -4.49013e-011 -3.48326e-026   
     length 0.57843   
     axis 2.22196e-014 -90 -90   XYZ
    dof rx rz
    limits (-90.0 90.0)
           (-45.0 45.0)
  end
  begin
     id 29
     name rfingers
     direction -1 -4.49023e-011 -6.9669e-026   
     length 0.466345   
     axis 4.44383e-014 -90 -90   XYZ
    dof rx
    limits (0.0 90.0)
  end
  begin
     id 30
     name rthumb
     direction -0.707107 -6.34926e-011 0.707107   
     length 0.669581   
     axis -90 -45 5.4397e-014   XYZ
    dof rx rz
    limits (-45.0 45.0)
           (-45.0 45.0)
  end
:hierarchy
  begin
    root lhipjoint rhipjoint lowerback
    lhipjoint lfemur
    lfemur ltibia
    ltibia lfoot
    lfoot ltoes
    rhipjoint rfemur
    rfemur rtibia
    rtibia rfoot
    rfoot rtoes
    lowerback upperback
    upperback thorax
    thorax lowerneck lclavicle rclavicle
    lowerneck upperneck
    upperneck head
    lclavicle lhumerus
    lhumerus lradius
    lradius lwrist
    lwrist lhand lthumb
    lhand lfingers
    rclavicle rhumerus
    rhumerus rradius
    rradius rwrist
    rwrist rhand rthumb
    rhand rfingers
  end

#!OML:ASF H:\SkateBoarding\Project 1\Capture day 1\Session 1\Skater.ASF
:FULLY-SPECIFIED
:DEGREES
144
root -12.9356 18.487 2.36812 0.13405 68.0991 -3.10657
lowerback 11.4642 -2.86449 -4.24591
upperback -1.03076 -4.46235 -0.927469
thorax -7.27849 -2.01976 2.17748
lowerneck -18.9167 -5.85676 -2.59484
upperneck 35.2998 -8.18797 2.27652
head 15.92 -3.25075 -0.076337
rclavicle -1.41932e-013 9.54166e-015
rhumerus -40.1172 18.4607 -78.6618
rradius 65.596
rwrist -14.1235
rhand -41.7064 7.39293
rfingers 7.12502
rthumb -14.6123 -22.0723
lclavicle -1.41932e-013 9.54166e-015
lhumerus -17.2885 -41.9684 100
lradius 95.8185
lwrist 27.6798
lhand -38.0579 -1.09799
lfingers 7.12502
lthumb -11.0951 28.5887
rfemur -28.487 -10.89 16.8788
rtibia 64.4611
rfoot -39.3611 7.31101
rtoes -12.7434
lfemur -18.6095 1.52022 -11.3339
ltibia 64.2542
lfoot -44.4775 3.80089
ltoes -24.3286
145
root -12.9408 18.4639 2.74193 -0.670494 68.7459 -4.44926
lowerback 11.2003 -2.98395 -3.83392
upperback -1.24004 -4.55789 -0.862353
thorax -7.37219 -2.07846 2.02374
lowerneck -18.5962 -5.83487 -2.5658
upperneck 35.3473 -8.12004 2.18105
head 15.857 -3.23353 -0.097576
rclavicle 1.91827e-014 -1.27222e-014
rhumerus -41.0231 18.4964 -79.2001
rradius 66.0153
rwrist -14.2042
rhand -41.4372 7.3204
rfingers 7.12502
rthumb -14.3529 -22.1634
lclavicle 1.91827e-014 -1.27222e-014
lhumerus -18.5492 -41.2657 100.324
lradius 95.4547
lwrist 28.1948
lhand -38.0486 -0.468636
lfingers 7.12502
lthumb -11.0862 29.2186
rfemur -29.1423 -9.93893 16.7984
rtibia 64.7666
rfoot -38.0778 9.10167
rtoes -10.5299
lfemur -18.8899 0.553836 -11.1433
ltibia 63.965
lfoot -45.2833 2.64805
ltoes -23.1133
146
root -12.9412 18.4662 3.14334 -1.83902 69.6624 -5.85424
lowerback 11.1323 -3.15458 -3.74223
upperback -1.31749 -4.76649 -0.764471
thorax -7.40318 -2.18088 2.10835
lowerneck -18.3146 -5.84482 -2.38967
upperneck 35.4123 -8.12876 2.01731
head 15.8014 -3.2372 -0.188729
rclavicle 3.37934e-014 7.15625e-015
rhumerus -41.8435 18.3494 -79.7208
rradius 66.3664
rwrist -14.2749
rhand -40.9192 7.70233
rfingers 7.12502
rthumb -13.8538 -21.8163
lclavicle 3.37934e-014 7.15625e-015
lhumerus -19.6724 -40.5525 100.435
lradius 95.1206
lwrist 28.5511
lhand -37.9189 0.199302
lfingers 7.12502
lthumb -10.9611 29.8932
rfemur -29.2112 -8.79017 16.6486
rtibia 64.8283
rfoot -36.8022 8.91605
rtoes -12.1651
lfemur -18.8484 -0.668509 -10.739
ltibia 63.4681
lfoot -45.525 2.02673
ltoes -22.9206
147
root -12.9417 18.468 3.54188 -3.37072 70.4887 -7.60221
lowerback 11.174 -3.27236 -3.45826
upperback -1.39577 -4.88574 -0.697551
thorax -7.52119 -2.24583 2.0469
lowerneck -18.0504 -5.88219 -2.38058
upperneck 35.5114 -8.1976 2.06438
head 15.7925 -3.25523 -0.174358
rclavicle 3.00165e-014 -1.59028e-015
rhumerus -42.8624 18.4023 -80.5936
rradius 66.5511
rwrist -12.3899
rhand -42.5034 5.44193
rfingers 7.12502
rthumb -15.3801 -23.966
lclavicle 3.00165e-014 -1.59028e-015
lhumerus -20.8736 -40.0055 100.7
lradius 94.7814
lwrist 29.0146
lhand -38.4448 0.202232
lfingers 7.12502
lthumb -11.4683 29.8685
rfemur -29.1829 -7.60477 16.506
rtibia 64.7431
rfoot -34.9555 9.93307
rtoes -11.0001
lfemur -18.9387 -1.7133 -10.2597
ltibia 63.0424
lfoot -45.4428 2.31642
ltoes -22.9806
148
root -12.9264 18.4917 4.01609 -6.18025 72.053 -9.89295
lowerback 11.5635 -3.57916 -4.08341
upperback -1.13046 -5.36615 -0.40747
thorax -7.34751 -2.4546 2.79396
lowerneck -17.9015 -5.91868 -2.54514
upperneck 35.6926 -8.23242 2.17991
head 15.8657 -3.26854 -0.0998129
rclavicle -6.24184e-014 2.22639e-014
rhumerus -43.4339 17.9418 -80.8548
rradius 66.8677
rwrist -13.404
rhand -40.8124 7.2156
rfingers 7.12502
rthumb -13.7508 -22.31
lclavicle -6.24184e-014 2.22639e-014
lhumerus -21.8798 -39.2922 100.716
lradius 94.5334
lwrist 29.4517
lhand -38.6437 0.718594
lfingers 7.12502
lthumb -11.6601 30.3741
rfemur -27.5776 -6.43206 16.6718
rtibia 64.3788
rfoot -34.1633 11.35
rtoes -10.4611
lfemur -18.0273 -3.10452 -9.37009
ltibia 62.4417
lfoot -45.3597 2.31813
ltoes -23.1865
149
root -12.9203 18.5024 4.44321 -8.42016 72.8966 -12.0548
lowerback 11.7802 -3.6989 -4.09239
upperback -1.03955 -5.52713 -0.32472
thorax -7.35236 -2.53126 2.92526
lowerneck -17.9317 -5.99025 -2.582
upperneck 35.9813 -8.37523 2.30791
head 16.0333 -3.30081 -0.0686322
rclavicle -2.0773e-014 -1.74931e-014
rhumerus -44.112 17.516 -81.4277
rradius 67.0305
rwrist -13.0072
rhand -40.5567 7.27807
rfingers 7.12502
rthumb -13.5044 -22.2641
lclavicle -2.0773e-014 -1.74931e-014
lhumerus -22.8367 -38.7515 100.545
lradius 94.3152
lwrist 29.9008
lhand -38.6588 1.10495
lfingers 7.12502
lthumb -11.6746 30.7597
rfemur -26.8667 -5.08671 16.7302
rtibia 64.052
rfoot -32.5604 13.0853
rtoes -9.05818
lfemur -17.7984 -3.88268 -8.76727
ltibia 62.2014
lfoot -45.4106 2.50074
ltoes -23.3209
150
root -12.9194 18.4922 4.85003 -9.93581 73.5726 -13.9726
lowerback 11.5645 -3.79144 -3.90061
upperback -1.10293 -5.61503 -0.303165
thorax -7.30708 -2.58324 2.84172
lowerneck -17.8969 -6.05864 -2.76698
upperneck 36.2041 -8.50305 2.55318
head 16.171 -3.33289 0.0438558
rclavicle -5.1684e-014 4.77083e-015
rhumerus -44.7244 16.9336 -81.9176
rradius 67.0416
rwrist -12.5611
rhand -40.3161 7.50212
rfingers 7.12502
rthumb -13.2724 -22.0553
lclavicle -5.1684e-014 4.77083e-015
lhumerus -23.749 -38.2321 100.347
lradius 94.1157
lwrist 30.2912
lhand -39.0143 1.29307
lfingers 7.12502
lthumb -12.0174 30.9281
rfemur -26.8781 -3.98909 16.7644
rtibia 63.7552
rfoot -30.8 14.4308
rtoes -8.03707
lfemur -18.2321 -4.41498 -8.32024
ltibia 62.1834
lfoot -45.9185 3.11815
ltoes -23.7476
151
root -12.916 18.488 5.26347 -11.2046 74.2288 -15.5436
lowerback 11.4112 -3.84668 -3.86768
upperback -1.14079 -5.67997 -0.320205
thorax -7.2609 -2.61819 2.80524
lowerneck -17.9083 -6.11998 -2.67039
upperneck 36.4109 -8.62013 2.53512
head 16.2763 -3.3602 -0.0036032
rclavicle 2.27608e-014 1.59028e-014
rhumerus -45.382 16.38 -82.4323
rradius 67.0217
rwrist -12.0559
rhand -40.3092 7.47529
rfingers 7.12502
rthumb -13.2658 -22.0825
lclavicle 2.27608e-014 1.59028e-014
lhumerus -24.7638 -37.8275 100.046
lradius 94.0248
lwrist 30.4884
lhand -39.3395 1.61498
lfingers 7.12502
lthumb -12.331 31.2314
rfemur -26.7488 -2.69212 16.6713
rtibia 63.4459
rfoot -29.033 16.0377
rtoes -6.408
lfemur -18.6038 -4.91943 -7.98292
ltibia 62.3131
lfoot -46.5528 3.73139
ltoes -24.2814
152
root -12.9107 18.4839 5.67874 -12.1917 74.8797 -16.7696
lowerback 11.2977 -3.90541 -4.00791
upperback -1.16132 -5.77411 -0.338013
thorax -7.2003 -2.66083 2.87029
lowerneck -17.8443 -6.15283 -2.71445
upperneck 36.49 -8.67137 2.59667
head 16.3106 -3.37452 0.0228724
rclavicle 3.57812e-015 -7.95139e-015
rhumerus -45.8864 15.7565 -82.9036
rradius 66.7402
rwrist -11.3882
rhand -40.1742 7.62237
rfingers 7.12502
rthumb -13.1357 -21.9439
lclavicle 3.57812e-015 -7.95139e-015
lhumerus -25.7491 -37.3125 99.706
lradius 93.9215
lwrist 30.66
lhand -39.4837 1.94748
lfingers 7.12502
lthumb -12.4701 31.5554
rfemur -26.508 -1.44405 16.4865
rtibia 63.0692
rfoot -27.5145 17.506
rtoes -5.30652
lfemur -18.895 -5.49565 -7.72906
ltibia 62.4314
lfoot -47.1887 4.23022
ltoes -24.8379
